<?xml version="1.0" standalone="no"?><svg xmlns="http://www.w3.org/2000/svg" viewBox="0 0 1440 320"><path fill="#35a2eb" fill-opacity="1" d="M0,192L17.1,186.7C34.3,181,69,171,103,170.7C137.1,171,171,181,206,154.7C240,128,274,64,309,69.3C342.9,75,377,149,411,165.3C445.7,181,480,139,514,133.3C548.6,128,583,160,617,154.7C651.4,149,686,107,720,112C754.3,117,789,171,823,202.7C857.1,235,891,245,926,213.3C960,181,994,107,1029,85.3C1062.9,64,1097,96,1131,122.7C1165.7,149,1200,171,1234,149.3C1268.6,128,1303,64,1337,42.7C1371.4,21,1406,43,1423,53.3L1440,64L1440,320L1422.9,320C1405.7,320,1371,320,1337,320C1302.9,320,1269,320,1234,320C1200,320,1166,320,1131,320C1097.1,320,1063,320,1029,320C994.3,320,960,320,926,320C891.4,320,857,320,823,320C788.6,320,754,320,720,320C685.7,320,651,320,617,320C582.9,320,549,320,514,320C480,320,446,320,411,320C377.1,320,343,320,309,320C274.3,320,240,320,206,320C171.4,320,137,320,103,320C68.6,320,34,320,17,320L0,320Z"></path></svg>