<?xml version="1.0" standalone="no"?><svg xmlns="http://www.w3.org/2000/svg" viewBox="0 0 1440 320"><path fill="#0099ff" fill-opacity="0.75" d="M0,64L7.3,80C14.5,96,29,128,44,133.3C58.2,139,73,117,87,106.7C101.8,96,116,96,131,106.7C145.5,117,160,139,175,154.7C189.1,171,204,181,218,181.3C232.7,181,247,171,262,144C276.4,117,291,75,305,85.3C320,96,335,160,349,165.3C363.6,171,378,117,393,80C407.3,43,422,21,436,26.7C450.9,32,465,64,480,80C494.5,96,509,96,524,112C538.2,128,553,160,567,165.3C581.8,171,596,149,611,149.3C625.5,149,640,171,655,170.7C669.1,171,684,149,698,160C712.7,171,727,213,742,213.3C756.4,213,771,171,785,133.3C800,96,815,64,829,85.3C843.6,107,858,181,873,224C887.3,267,902,277,916,272C930.9,267,945,245,960,218.7C974.5,192,989,160,1004,122.7C1018.2,85,1033,43,1047,26.7C1061.8,11,1076,21,1091,64C1105.5,107,1120,181,1135,192C1149.1,203,1164,149,1178,122.7C1192.7,96,1207,96,1222,112C1236.4,128,1251,160,1265,154.7C1280,149,1295,107,1309,90.7C1323.6,75,1338,85,1353,90.7C1367.3,96,1382,96,1396,96C1410.9,96,1425,96,1433,96L1440,96L1440,0L1432.7,0C1425.5,0,1411,0,1396,0C1381.8,0,1367,0,1353,0C1338.2,0,1324,0,1309,0C1294.5,0,1280,0,1265,0C1250.9,0,1236,0,1222,0C1207.3,0,1193,0,1178,0C1163.6,0,1149,0,1135,0C1120,0,1105,0,1091,0C1076.4,0,1062,0,1047,0C1032.7,0,1018,0,1004,0C989.1,0,975,0,960,0C945.5,0,931,0,916,0C901.8,0,887,0,873,0C858.2,0,844,0,829,0C814.5,0,800,0,785,0C770.9,0,756,0,742,0C727.3,0,713,0,698,0C683.6,0,669,0,655,0C640,0,625,0,611,0C596.4,0,582,0,567,0C552.7,0,538,0,524,0C509.1,0,495,0,480,0C465.5,0,451,0,436,0C421.8,0,407,0,393,0C378.2,0,364,0,349,0C334.5,0,320,0,305,0C290.9,0,276,0,262,0C247.3,0,233,0,218,0C203.6,0,189,0,175,0C160,0,145,0,131,0C116.4,0,102,0,87,0C72.7,0,58,0,44,0C29.1,0,15,0,7,0L0,0Z"></path></svg>