<?xml version="1.0" standalone="no"?><svg xmlns="http://www.w3.org/2000/svg" viewBox="0 0 1440 320"><path fill="#0099ff" fill-opacity="0.75" d="M0,32L16,69.3C32,107,64,181,96,197.3C128,213,160,171,192,160C224,149,256,171,288,165.3C320,160,352,128,384,122.7C416,117,448,139,480,128C512,117,544,75,576,58.7C608,43,640,53,672,80C704,107,736,149,768,176C800,203,832,213,864,234.7C896,256,928,288,960,293.3C992,299,1024,277,1056,229.3C1088,181,1120,107,1152,112C1184,117,1216,203,1248,213.3C1280,224,1312,160,1344,149.3C1376,139,1408,181,1424,202.7L1440,224L1440,320L1424,320C1408,320,1376,320,1344,320C1312,320,1280,320,1248,320C1216,320,1184,320,1152,320C1120,320,1088,320,1056,320C1024,320,992,320,960,320C928,320,896,320,864,320C832,320,800,320,768,320C736,320,704,320,672,320C640,320,608,320,576,320C544,320,512,320,480,320C448,320,416,320,384,320C352,320,320,320,288,320C256,320,224,320,192,320C160,320,128,320,96,320C64,320,32,320,16,320L0,320Z"></path></svg>